<svg t="1619598597999" class="icon" viewBox="0 0 1024 1024" version="1.1" xmlns="http://www.w3.org/2000/svg" p-id="1672" width="200" height="200"><path d="M512 938.666667c235.648 0 426.666667-191.018667 426.666667-426.666667S747.648 85.333333 512 85.333333 85.333333 276.352 85.333333 512s191.018667 426.666667 426.666667 426.666667z m0-85.333334a341.333333 341.333333 0 1 1 0-682.666666 341.333333 341.333333 0 0 1 0 682.666666z m-158.165333-311.168l128 128a42.666667 42.666667 0 0 0 60.330666-60.330666L486.997333 554.666667H640a42.666667 42.666667 0 1 0 0-85.333334h-153.002667l55.168-55.168a42.666667 42.666667 0 0 0-60.330666-60.330666l-128 128a42.666667 42.666667 0 0 0 0 60.330666z" fill="#333333" p-id="1673"></path></svg>