<svg t="1619598572424" class="icon" viewBox="0 0 1024 1024" version="1.1" xmlns="http://www.w3.org/2000/svg" p-id="1411" width="200" height="200"><path d="M512 938.666667C276.352 938.666667 85.333333 747.648 85.333333 512S276.352 85.333333 512 85.333333s426.666667 191.018667 426.666667 426.666667-191.018667 426.666667-426.666667 426.666667z m0-85.333334a341.333333 341.333333 0 1 0 0-682.666666 341.333333 341.333333 0 0 0 0 682.666666z m158.165333-311.168l-128 128a42.666667 42.666667 0 0 1-60.330666-60.330666L537.002667 554.666667H384a42.666667 42.666667 0 1 1 0-85.333334h153.002667l-55.168-55.168a42.666667 42.666667 0 0 1 60.330666-60.330666l128 128a42.666667 42.666667 0 0 1 0 60.330666z" fill="#333333" p-id="1412" data-spm-anchor-id="a313x.7781069.0.i0" class=""></path></svg>