<svg t="1619530776942" class="icon" viewBox="0 0 1024 1024" version="1.1" xmlns="http://www.w3.org/2000/svg" p-id="3507" width="200" height="200"><path d="M890.759375 456.9875L580.259375 134.084375a100.74375 100.74375 0 0 0-145.4625 0L124.38125 456.9875c-32.0625 33.75-27.928125 62.184375-22.696875 74.165625a54 54 0 0 0 53.240625 32.0625h45.5625v248.4c0 56.3625 40.5 109.6875 98.128125 109.6875h132.13125V658.221875c0-28.18125-4.21875-43.875 24.553125-43.875h104.45625c28.85625 0 24.553125 15.69375 24.553125 43.875v262.9125h132.215625c57.54375 0 98.128125-53.15625 98.128125-109.6875V563.215625h45.478125a54 54 0 0 0 53.240625-32.0625c5.315625-11.98125 9.45-40.8375-22.6125-74.165625z" fill="#333333" p-id="3508"></path></svg>