<svg t="1619531902035" class="icon" viewBox="0 0 1024 1024" version="1.1" xmlns="http://www.w3.org/2000/svg" p-id="5728" width="200" height="200"><path d="M511.980924 0C229.220134 0 0.025435 229.232852 0.025435 512.006359s229.194699 511.993641 511.955489 511.993641S1023.974565 794.843453 1023.974565 512.006359 794.932476 0 511.980924 0z m0 970.599237c-118.577926 0.15261-226.307828-45.325153-307.674363-119.137495C252.175213 727.771383 371.376296 639.410226 511.980924 639.410226s259.792993 88.208547 307.763385 211.911624c-81.455557 73.952235-189.198177 119.277388-307.763385 119.277387z m-108.09871-426.837293a152.82614 152.82614 0 0 1-44.765583-108.098709 152.838858 152.838858 0 1 1 44.765583 108.098709z m454.396105 268.529913C813.245669 713.960183 728.737913 637.858692 624.136514 605.657994a203.861449 203.861449 0 1 0-224.298463 0.114457c-104.614116 32.213415-189.121872 108.314907-234.154523 206.633863a455.807747 455.807747 0 0 1-112.448093-300.260063C53.235435 258.775593 258.597548 53.41348 511.980924 53.41348s458.745489 205.336678 458.745488 458.732771c0 114.826265-42.616327 219.618425-112.448093 300.145606z" p-id="5729"></path></svg>