<svg t="1619789581341" class="icon" viewBox="0 0 1471 1024" version="1.1" xmlns="http://www.w3.org/2000/svg" p-id="3856" width="200" height="200"><path d="M933.647059 585.142857c-90.352941 51.630252-180.705882 103.260504-266.756303 159.193277-86.05042 55.932773-129.07563 30.117647-129.07563-73.142857 4.302521-103.260504 4.302521-210.823529 0-314.084033s38.722689-129.07563 129.07563-73.142857 176.403361 107.563025 266.756303 159.193277 90.352941 94.655462 0 141.983193z" fill="#dd6d60" p-id="3857"></path><path d="M512 1024c-137.680672 0-262.453782-51.630252-361.411765-150.588235C51.630252 774.453782 0 649.680672 0 512s51.630252-266.756303 150.588235-361.411765S374.319328 0 507.697479 0h451.764706c137.680672 0 262.453782 51.630252 361.411765 150.588235 94.655462 94.655462 150.588235 223.731092 150.588235 361.411765 0 279.663866-228.033613 512-512 512H512zM507.697479 129.07563c-98.957983 0-197.915966 38.722689-266.756303 111.865546C167.798319 314.084034 129.07563 408.739496 129.07563 512s38.722689 197.915966 111.865546 271.058824c73.142857 73.142857 167.798319 111.865546 271.058824 111.865546h451.764706c210.823529 0 382.92437-172.10084 382.92437-382.92437 0-103.260504-38.722689-197.915966-111.865547-271.058824-77.445378-73.142857-172.10084-111.865546-275.361344-111.865546H507.697479z" fill="#dd6d60" p-id="3858"></path></svg>